# xmcd
#
# Track frame offsets:
#	150
#	21152
#	37654
#	52656
#	64838
#	81640
#
# Disc length: 1376 seconds
#
# Revision: 1
# Processed by: cddbd v1.5.1PL0 Copyright (c) Steve Scherf et al.
# Submitted via: audiograbber 1.81.03
#
DISCID=41055e06
DTITLE=Sam Hare - The Bridge Sessions
DYEAR=2005
DGENRE=Blues
TTITLE0=The Bridge (send word from the)
TTITLE1=Moving Though Georgia
TTITLE2=You Just Bring Me Water
TTITLE3=Her Time Of Day
TTITLE4=Fly With Me Again
TTITLE5=Leaving Blues
EXTD=
EXTT0=
EXTT1=
EXTT2=
EXTT3=
EXTT4=
EXTT5=
PLAYORDER=
